<?xml version="1.0" standalone="no"?>
<!DOCTYPE svg PUBLIC "-//W3C//DTD SVG 20010904//EN"
 "http://www.w3.org/TR/2001/REC-SVG-20010904/DTD/svg10.dtd">
<svg version="1.0" xmlns="http://www.w3.org/2000/svg"
 width="360.000000pt" height="343.000000pt" viewBox="0 0 360.000000 343.000000"
 preserveAspectRatio="xMidYMid meet">

<g transform="translate(0.000000,343.000000) scale(0.100000,-0.100000)"
fill="#000000" stroke="none">
<path d="M1711 3419 c-505 -53 -989 -351 -1243 -766 -28 -46 -54 -83 -57 -83
-3 0 -97 91 -208 202 l-203 203 0 -583 0 -582 580 0 c319 0 580 2 580 4 0 3
-111 115 -247 250 l-248 245 29 53 c121 223 351 445 586 563 90 45 246 98 355
121 122 25 375 25 497 1 549 -110 968 -526 1085 -1077 25 -118 25 -382 0 -500
-66 -312 -228 -584 -463 -779 -327 -271 -729 -374 -1137 -290 -418 85 -771
368 -962 772 l-46 97 -185 0 c-159 0 -184 -2 -184 -15 0 -26 70 -204 116 -296
156 -313 447 -605 758 -761 674 -339 1484 -204 2002 334 92 95 139 154 207
258 440 679 345 1564 -228 2134 -369 366 -876 548 -1384 495z"/>
<path d="M1620 2071 l0 -459 413 -245 c226 -135 417 -247 424 -249 10 -3 159
221 151 227 -2 1 -164 98 -360 215 l-358 213 0 379 0 378 -135 0 -135 0 0
-459z"/>
</g>
</svg>
